<?xml version="1.0" encoding="utf-8"?>
<!-- Generator: Adobe Illustrator 28.2.0, SVG Export Plug-In . SVG Version: 6.00 Build 0)  -->
<svg version="1.1" id="uuid-3a280d5c-0cb9-4d61-b15c-68506851e344"
	 xmlns="http://www.w3.org/2000/svg" xmlns:xlink="http://www.w3.org/1999/xlink" x="0px" y="0px" viewBox="0 0 1231.9 933.9"
	 style="enable-background:new 0 0 1231.9 933.9;" xml:space="preserve">
<style type="text/css">
	.st0{fill:#1E2137;}
	.st1{fill:#2F2E48;}
</style>
<g>
	<path class="st0" d="M445.9,318.1c0.9-3.6-0.5-7-1.3-10.2c-1.1-4.5-2.7-8.9-5.4-13c-3-4.4-6.2-8.4-10.7-11.2
		c-6.8-4.3-14.6-5.1-22.3-6.3c-2.7-0.4-5,1.1-7.5,1c-4.8-0.2-9.4,1-13.7,2.3c-6.8,2.1-13.3,4.9-19.5,8.5c-8.4,5-15.9,10.9-21.3,19.3
		c-2.8,4.4-3.8,9-4.4,13.9c-0.5,4,0.6,7.8,1.8,11.6c1.4,4.6,3.5,8.7,6.3,12.5c5.4,7.2,12,13.2,19.3,18.6c3.6,2.6,7.8,3.2,11.9,2.1
		c6.4-1.7,10.9-9.8,9-16.2c-0.8-2.8-2.1-5.5-5.1-7.2c-2.4-1.4-5-3-6.7-5.3c-1.9-2.6-3.9-5.4-2.7-8.9c2.7-7.7,8.6-12.4,15.8-15.8
		c3.7-1.8,7.5-2.8,11.5-3.5c5.8-1,13,0.7,15.4,7.1c1.8,4.6,2.3,9.6,2.5,14.4c0.5,10-1,20-1.3,30.1c-0.2,7.8-0.6,15.6-0.1,23.4
		c0.3,4.6,1.1,9.1,3.2,13.1c2.9,5.6,7.5,9.2,14,9.7c6.1,0.5,11.4-3.8,11.2-9.8c-0.2-4.5-2.8-8.2-5.5-11.5c-3.4-4-4.8-8.7-5.4-13.6
		c-0.9-7,1.5-13.6,3.2-20.2c1.5-5.7,3.3-11.3,5-17C444.8,329.8,445.3,323.9,445.9,318.1L445.9,318.1z M450.7,437.9
		c6.9,0.4,13.2-6.4,13.2-12.6c-0.1-6.6-5.1-13-13.4-13.1c-6.1-0.1-12.8,5.9-12.7,13.2C437.9,431.4,444.1,438.6,450.7,437.9
		L450.7,437.9z"/>
	<path class="st1" d="M1014.9,933.9c2.5-7.6,6.1-14.3,13.1-18.7c6.4-4,13.2-6,20.9-5c6,0.8,11.2,3.1,15.7,6.7
		c5.3,4.1,8.8,9.7,10.4,16.3c0.1,0.2,0.2,0.5,0.3,0.7L1014.9,933.9L1014.9,933.9z"/>
	<path class="st1" d="M1231.4,609.4c0,30.7,0,61.3,0,92c-3.5-1.5-6.4-4-9.7-5.9c-8.5-4.6-17.4-7.8-27.2-7.1
		c-10.1,0.7-16.4,6.5-20.7,15.3c-3.3,6.7-3.6,14.1-6.2,20.9c-2.1,5.6-5.5,10.2-10.1,13.8c-5.5,4.2-11.7,6.1-18.6,5.9
		c-11.4-0.3-20.9-4.8-27.5-14c-4.5-6.2-6-13.7-4.7-21.3c1.7-9.6,5.1-18.8,8.3-28c1.7-4.8,3.7-9.6,5.9-14.2
		c3.1-6.8,6.8-13.4,10.8-19.7c3.6-5.8,7.6-11.2,12-16.2c2.7-3.1,5.7-5.9,8.9-8.5c4.3-3.5,8.8-6.8,13.5-9.6c3.9-2.3,8.2-4,12.5-5.5
		c2.8-1,5.8-1.5,8.6-2.6c0.2-0.1,0.5-0.2,0.7-0.2c5.1,0.1,10.2-2.2,15.2-0.9c3.5,1,7.1,0.3,10.7,1.5c2,0.7,4.5,0.9,6.7,1.4
		c2.5,0.6,5.2,1.2,7.6,2.2C1229.2,609.2,1230.3,609.4,1231.4,609.4L1231.4,609.4z"/>
	<path class="st1" d="M1231.4,787.4c0,20.5,0,41,0,61.5c-8.5,0-16.8,1.6-25.3,1.9c-4.9,0.2-9.8,0.6-14.6,1c-9.5,0.9-19,2-28.2,4.2
		c-7.9,1.9-15.6,4.8-22.5,9.2c-2.6,1.7-5.1,3.9-7.5,6c-6.7,5.9-10.6,13.8-15.8,20.8c-5.3,7.3-11.7,13.4-20.7,16.1
		c-6.7,2-16.2-0.8-21-7c-2.9-3.8-5.4-7.9-6.5-12.4c-1.1-4.7-1.3-9.6-0.8-14.5c0.9-8.1,4.1-15.1,9.2-21.3c4.1-5.1,9-9.6,14.7-12.9
		c4.6-2.7,9.1-5.7,14.1-7.7c7.4-3.1,14.8-6.2,22.3-9.2c7.1-2.8,14.3-4.9,21.4-7.5c7.4-2.7,15.2-4.7,22.7-7.2
		c8.7-3,17.6-5.5,26.3-8.6c6.8-2.4,13.5-4.9,20.3-7.1C1223.5,791.4,1227.4,789.2,1231.4,787.4L1231.4,787.4z"/>
	<path class="st1" d="M445.9,318.1c-0.6,5.9-1.1,11.8-2.8,17.5c-1.7,5.7-3.5,11.3-5,17c-1.7,6.6-4,13.3-3.2,20.2
		c0.6,4.9,2,9.6,5.4,13.6c2.7,3.3,5.3,6.9,5.5,11.5c0.2,6-5.1,10.3-11.2,9.8c-6.5-0.5-11.1-4.1-14-9.7c-2.1-4-2.9-8.5-3.2-13.1
		c-0.5-7.8-0.1-15.6,0.1-23.4c0.3-10,1.8-20,1.3-30.1c-0.2-4.8-0.7-9.8-2.5-14.4c-2.4-6.4-9.6-8-15.4-7.1c-4,0.7-7.8,1.7-11.5,3.5
		c-7.1,3.4-13,8.1-15.8,15.8c-1.2,3.4,0.9,6.2,2.7,8.9c1.7,2.4,4.3,3.9,6.7,5.3c3,1.8,4.3,4.5,5.1,7.2c1.9,6.4-2.6,14.5-9,16.2
		c-4.1,1.1-8.3,0.5-11.9-2.1c-7.2-5.3-13.9-11.4-19.3-18.6c-2.8-3.7-4.9-7.9-6.3-12.5c-1.2-3.8-2.3-7.6-1.8-11.6
		c0.6-4.9,1.6-9.5,4.4-13.8c5.4-8.4,12.9-14.3,21.3-19.3c6.1-3.7,12.7-6.4,19.5-8.5c4.3-1.3,8.9-2.6,13.7-2.3c2.5,0.1,4.9-1.4,7.5-1
		c7.7,1.2,15.5,2,22.3,6.3c4.5,2.8,7.7,6.8,10.6,11.2c2.7,4,4.4,8.5,5.4,13C445.4,311.1,446.8,314.5,445.9,318.1L445.9,318.1z"/>
	<path class="st1" d="M450.7,437.9c-6.6,0.6-12.8-6.5-12.9-12.6c-0.1-7.3,6.6-13.3,12.7-13.2c8.3,0.1,13.3,6.5,13.4,13.1
		C464,431.5,457.6,438.3,450.7,437.9L450.7,437.9z"/>
</g>
</svg>
